<?xml version="1.0" encoding="utf-8"?>
<!-- Generator: Adobe Illustrator 19.0.0, SVG Export Plug-In . SVG Version: 6.00 Build 0)  -->
<svg version="1.1" id="Layer_1" xmlns="http://www.w3.org/2000/svg" xmlns:xlink="http://www.w3.org/1999/xlink" x="0px" y="0px"
	 viewBox="0 0 400 400" style="enable-background:new 0 0 400 400;" xml:space="preserve">
<style type="text/css">
	.st0{fill:#FFFFFF;}
</style>
<g>
	<g>
		<path id="XMLID_22_" class="st0" d="M200,94.2c-3,0-5.3-2.4-5.3-5.3V35.5c0-3,2.4-5.3,5.3-5.3c3,0,5.3,2.4,5.3,5.3v53.4
			C205.3,91.8,203,94.2,200,94.2z"/>
	</g>
	<g>
		<path id="XMLID_21_" class="st0" d="M125.2,125.1c-1.4,0-2.7-0.5-3.8-1.6L83.7,85.8c-2.1-2.1-2.1-5.5,0-7.6c2.1-2.1,5.5-2.1,7.6,0
			L129,116c2.1,2.1,2.1,5.5,0,7.6C128,124.6,126.6,125.1,125.2,125.1z"/>
	</g>
	<g>
		<path id="XMLID_20_" class="st0" d="M40.9,199.9c-3,0-5.3-2.4-5.3-5.3c0-3,2.4-5.3,5.3-5.3l53.4,0c3,0,5.3,2.4,5.3,5.3
			c0,3-2.4,5.3-5.3,5.3L40.9,199.9z"/>
	</g>
	<g>
		<path id="XMLID_19_" class="st0" d="M87.5,312.4c-1.4,0-2.7-0.5-3.8-1.6c-2.1-2.1-2.1-5.5,0-7.6l37.7-37.7c2.1-2.1,5.5-2.1,7.6,0
			c2.1,2.1,2.1,5.5,0,7.6l-37.7,37.7C90.2,311.9,88.9,312.4,87.5,312.4z"/>
	</g>
	<g>
		<path id="XMLID_18_" class="st0" d="M312.5,312.4c-1.4,0-2.7-0.5-3.8-1.6L271,273.1c-2.1-2.1-2.1-5.5,0-7.6c2.1-2.1,5.5-2.1,7.6,0
			l37.7,37.7c2.1,2.1,2.1,5.5,0,7.6C315.2,311.9,313.9,312.4,312.5,312.4z"/>
	</g>
	<g>
		<path id="XMLID_17_" class="st0" d="M359.1,199.9L359.1,199.9l-53.4,0c-3,0-5.3-2.4-5.3-5.3c0-3,2.4-5.3,5.3-5.3l0,0l53.4,0
			c3,0,5.3,2.4,5.3,5.3C364.4,197.5,362,199.9,359.1,199.9z"/>
	</g>
	<g>
		<path id="XMLID_16_" class="st0" d="M274.8,125.1c-1.4,0-2.7-0.5-3.8-1.6c-2.1-2.1-2.1-5.5,0-7.6l37.7-37.7c2.1-2.1,5.5-2.1,7.6,0
			c2.1,2.1,2.1,5.5,0,7.6l-37.7,37.7C277.5,124.6,276.1,125.1,274.8,125.1z"/>
	</g>
	<g>
		<path id="XMLID_15_" class="st0" d="M159.5,102.2c-2.1,0-4.1-1.2-4.9-3.3l-12.7-30.6c-1.1-2.7,0.2-5.9,2.9-7
			c2.7-1.1,5.9,0.2,7,2.9l12.7,30.6c1.1,2.7-0.2,5.9-2.9,7C160.9,102.1,160.2,102.2,159.5,102.2z"/>
	</g>
	<g>
		<path id="XMLID_14_" class="st0" d="M102.3,159.4c-0.7,0-1.4-0.1-2-0.4l-30.6-12.7c-2.7-1.1-4-4.3-2.9-7c1.1-2.7,4.3-4,7-2.9
			l30.6,12.7c2.7,1.1,4,4.3,2.9,7C106.4,158.2,104.4,159.4,102.3,159.4z"/>
	</g>
	<g>
		<path id="XMLID_13_" class="st0" d="M71.7,253c-2.1,0-4.1-1.2-4.9-3.3c-1.1-2.7,0.2-5.9,2.9-7l30.6-12.7c2.7-1.1,5.9,0.2,7,2.9
			c1.1,2.7-0.2,5.9-2.9,7l-30.6,12.7C73.1,252.9,72.4,253,71.7,253z"/>
	</g>
	<g>
		<path id="XMLID_12_" class="st0" d="M146.9,328.2c-0.7,0-1.4-0.1-2-0.4c-2.7-1.1-4-4.3-2.9-7l12.7-30.6c1.1-2.7,4.3-4,7-2.9
			c2.7,1.1,4,4.3,2.9,7l-12.7,30.6C150.9,327,149,328.2,146.9,328.2z"/>
	</g>
	<g>
		<path id="XMLID_11_" class="st0" d="M253.1,328.2c-2.1,0-4.1-1.2-4.9-3.3l-12.7-30.6c-1.1-2.7,0.2-5.9,2.9-7
			c2.7-1.1,5.9,0.2,7,2.9l12.7,30.6c1.1,2.7-0.2,5.9-2.9,7C254.5,328.1,253.8,328.2,253.1,328.2z"/>
	</g>
	<g>
		<path id="XMLID_10_" class="st0" d="M328.3,253c-0.7,0-1.4-0.1-2-0.4L295.6,240c-2.7-1.1-4-4.3-2.9-7c1.1-2.7,4.3-4,7-2.9
			l30.6,12.7c2.7,1.1,4,4.3,2.9,7C332.4,251.8,330.4,253,328.3,253z"/>
	</g>
	<g>
		<path id="XMLID_9_" class="st0" d="M297.7,159.4c-2.1,0-4.1-1.2-4.9-3.3c-1.1-2.7,0.2-5.9,2.9-7l30.6-12.7c2.7-1.1,5.9,0.2,7,2.9
			c1.1,2.7-0.2,5.9-2.9,7L299.7,159C299.1,159.3,298.4,159.4,297.7,159.4z"/>
	</g>
	<g>
		<path id="XMLID_8_" class="st0" d="M240.5,102.2c-0.7,0-1.4-0.1-2-0.4c-2.7-1.1-4-4.3-2.9-7l12.7-30.6c1.1-2.7,4.3-4,7-2.9
			c2.7,1.1,4,4.3,2.9,7l-12.7,30.6C244.5,101,242.6,102.2,240.5,102.2z"/>
	</g>
	<g>
		<path class="st0" d="M236.4,209.4c-11.9,0-21.7-9.7-21.7-21.7c0-10.6,14.8-27.1,17.7-30.3c2-2.2,5.8-2.2,7.9,0
			c3,3.2,17.7,19.8,17.7,30.3C258.1,199.7,248.4,209.4,236.4,209.4z M236.4,169.2c-5.8,7.1-11,15.1-11,18.6c0,6,4.9,11,11,11
			c6,0,11-4.9,11-11C247.4,184.3,242.2,176.3,236.4,169.2z"/>
	</g>
	<g>
		<g>
			<path id="XMLID_5_" class="st0" d="M165.8,209.4c-3,0-5.3-2.4-5.3-5.3v-42.8c0-3,2.4-5.3,5.3-5.3c3,0,5.3,2.4,5.3,5.3V204
				C171.2,207,168.8,209.4,165.8,209.4z"/>
		</g>
		<g>
			<path id="XMLID_4_" class="st0" d="M184.4,198.6c-0.9,0-1.8-0.2-2.7-0.7l-37.1-21.4c-2.6-1.5-3.4-4.7-2-7.3
				c1.5-2.6,4.7-3.4,7.3-2l37.1,21.4c2.6,1.5,3.4,4.7,2,7.3C188,197.7,186.2,198.6,184.4,198.6z"/>
		</g>
		<g>
			<path id="XMLID_3_" class="st0" d="M147.3,198.6c-1.8,0-3.6-1-4.6-2.7c-1.5-2.6-0.6-5.8,2-7.3l37.1-21.4c2.6-1.5,5.8-0.6,7.3,2
				c1.5,2.6,0.6,5.8-2,7.3L150,197.9C149.1,198.4,148.2,198.6,147.3,198.6z"/>
		</g>
	</g>
	<path id="XMLID_2_" class="st0" d="M200,105.3c-49.2,0-89.3,40.1-89.3,89.3c0,49,39.7,88.9,88.6,89.3l0.9-10.7c-0.1,0-0.1,0-0.2,0
		c-43.3,0-78.6-35.3-78.6-78.6c0-43.3,35.3-78.6,78.6-78.6c43.3,0,78.6,35.3,78.6,78.6c0,35.3-23.4,65.2-55.5,75.1l-1,11.4
		c38.6-9.9,67.1-44.9,67.1-86.5C289.3,145.3,249.2,105.3,200,105.3z"/>
	<path id="XMLID_1_" class="st0" d="M223.9,342.3c-2-1.9-5.2-1.9-7.2-0.1c-0.1,0.1-0.2,0.2-0.4,0.3l-6.2,6.7l0.8-9.6l8.3-95.7
		c0.1-1.6-0.4-3.1-1.5-4.2c-1.1-1.1-2.6-1.7-4.2-1.6l-25.2,2l13.2-28.7c1.2-2.7,0-5.8-2.6-7.1c-2.7-1.2-5.9-0.1-7.1,2.6l-17,37
		c-0.8,1.7-0.6,3.7,0.5,5.3c1.1,1.6,2.9,2.4,4.8,2.3l28-2.2l-7.7,89l-0.9,10l-4.8-7.9c-0.1-0.2-0.3-0.4-0.5-0.6
		c-1.6-2-4.6-2.6-6.9-1.2c-2.5,1.5-3.3,4.8-1.8,7.3l7.2,11.9v0l0.7,1.2l5.1,8.4c0.1,0.2,0.3,0.4,0.5,0.6c0,0,0,0,0.1,0.1
		c0.1,0.1,0.3,0.3,0.4,0.4c0.1,0.1,0.1,0.2,0.2,0.2c0.1,0.1,0.2,0.1,0.2,0.2c0,0,0,0,0,0c0.1,0.1,0.2,0.1,0.2,0.2
		c0.1,0.1,0.2,0.1,0.3,0.2c0.1,0,0.1,0.1,0.2,0.1c0.2,0.1,0.3,0.2,0.5,0.2c0,0,0.1,0,0.1,0c0.2,0.1,0.4,0.1,0.6,0.2c0,0,0.1,0,0.1,0
		c0.1,0,0.2,0.1,0.3,0.1c0,0,0.1,0,0.1,0c0,0,0,0,0,0c0.1,0,0.3,0,0.4,0c0,0,0.1,0,0.1,0h0.2c0.2,0,0.4,0,0.7,0
		c0.2,0,0.4-0.1,0.5-0.1c0.1,0,0.2,0,0.3-0.1c0.1,0,0.3-0.1,0.4-0.1c0,0,0.1,0,0.1,0c0,0,0,0,0.1,0c0.2-0.1,0.3-0.1,0.4-0.2
		c0.1,0,0.2-0.1,0.3-0.1c0.2-0.1,0.4-0.2,0.5-0.4c0.1-0.1,0.2-0.2,0.3-0.3c0.1-0.1,0.3-0.2,0.4-0.4l6.7-7.2l1.4-1.5l9-9.6
		C226.2,347.7,226.1,344.3,223.9,342.3z"/>
</g>
</svg>
